# xmcd CD database file
#
# Track frame offsets:
#	150
#	26108
#	44652
#	63022
#	93165
#	121431
#	138273
#	158339
#	171141
#	189364
#	205845
#	220983
#	235510
#	251519
#	266032
#	281618
#	290263
#	306699
#	315486
#
# Disc length: 4348 seconds
#
# Revision: 1
# Processed by: cddbd v1.4PL0 Copyright (c) Steve Scherf et al.
# Submitted via: Feurio! 1.63 - http://www.feurio.com
#
DISCID=0f10fa13
DTITLE=Various Artist - Hans-Jürgen 3
DYEAR=1900
DGENRE=classical
TTITLE0=Dire Straits - Sültan off Swing
TTITLE1=Dire Straits - Walk of Live
TTITLE2=Dire Straits - Money for Nothing
TTITLE3=Gerry Rafferty - North and South
TTITLE4=Gerry Rafferty - Shipyard Town
TTITLE5=Roy Orbinson - I Drove all Night
TTITLE6=Gerry Rafferty - Bajan Moon
TTITLE7=Gerry Rafferty - Over my Head
TTITLE8=Chet Atkins&Mark Knopfler - Pos Boy Blues
TTITLE9=Paul Mc Cartney - Off the Ground
TTITLE10=Paul Mc Cartney - Hope off the Liverance
TTITLE11=Travelling Willbury - Shes my Baby
TTITLE12=Travelling Willbury - Insede Out
TTITLE13=Travelling Wilburry - Pur Hous
TTITLE14=Dave Edmunds - Closer to the Flame
TTITLE15=Eddy Cochran - C' mon Everybody
TTITLE16=Eddy Cochran - Tree Stars
TTITLE17=Eddy Cochran - Sommertimes Blues
TTITLE18=Eddy Cochran - Three Stars to Haven
EXTD=
EXTT0=
EXTT1=
EXTT2=
EXTT3=
EXTT4=
EXTT5=
EXTT6=
EXTT7=
EXTT8=
EXTT9=
EXTT10=
EXTT11=
EXTT12=
EXTT13=
EXTT14=
EXTT15=
EXTT16=
EXTT17=
EXTT18=
PLAYORDER=
